<svg xmlns="http://www.w3.org/2000/svg" viewBox="0 0 1024 1024">
  <rect x="72" y="72" width="880" height="880" rx="224" fill="#0F1117"/>
  <rect x="160" y="214" width="704" height="596" rx="136" fill="#1A1D27" stroke="#2A2D3A" stroke-width="12"/>
  <g fill="#F8FAFC">
    <rect x="252" y="408" width="58" height="208" rx="29" opacity="0.65"/>
    <rect x="340" y="340" width="58" height="344" rx="29" opacity="0.78"/>
    <rect x="428" y="278" width="58" height="468" rx="29"/>
    <rect x="538" y="326" width="58" height="372" rx="29"/>
    <rect x="626" y="394" width="58" height="236" rx="29" opacity="0.78"/>
    <rect x="714" y="442" width="58" height="140" rx="29" opacity="0.65"/>
  </g>
  <rect x="500" y="236" width="24" height="552" rx="12" fill="#6366F1"/>
  <path d="M456 246 L512 190 L568 246" fill="#6366F1"/>
  <path d="M456 778 L512 834 L568 778" fill="#6366F1"/>
  <path d="M226 512 H798" stroke="#818CF8" stroke-width="20" stroke-linecap="round" opacity="0.85"/>
</svg>