<svg xmlns="http://www.w3.org/2000/svg" viewBox="0 0 1024 1024" role="img" aria-label="ScriptCut app icon">
  <defs>
    <linearGradient id="bg" x1="160" y1="128" x2="864" y2="896" gradientUnits="userSpaceOnUse">
      <stop offset="0" stop-color="#6d5dfc"/>
      <stop offset="0.55" stop-color="#4f46e5"/>
      <stop offset="1" stop-color="#13b8a7"/>
    </linearGradient>
    <linearGradient id="shine" x1="268" y1="190" x2="770" y2="834" gradientUnits="userSpaceOnUse">
      <stop offset="0" stop-color="#ffffff" stop-opacity="0.24"/>
      <stop offset="1" stop-color="#ffffff" stop-opacity="0"/>
    </linearGradient>
    <filter id="shadow" x="-20%" y="-20%" width="140%" height="140%" color-interpolation-filters="sRGB">
      <feDropShadow dx="0" dy="28" stdDeviation="28" flood-color="#111827" flood-opacity="0.32"/>
    </filter>
  </defs>
  <rect x="96" y="96" width="832" height="832" rx="212" fill="url(#bg)"/>
  <rect x="128" y="116" width="768" height="768" rx="188" fill="url(#shine)"/>
  <g filter="url(#shadow)">
    <rect x="286" y="236" width="452" height="552" rx="52" fill="#101827" opacity="0.9"/>
    <rect x="344" y="294" width="336" height="74" rx="22" fill="#f8fafc"/>
    <rect x="344" y="430" width="336" height="58" rx="20" fill="#f8fafc" opacity="0.9"/>
    <rect x="344" y="536" width="220" height="58" rx="20" fill="#f8fafc" opacity="0.72"/>
    <path d="M292 706c90-36 162-68 216-96 54-29 109-65 166-108" fill="none" stroke="#22d3ee" stroke-width="42" stroke-linecap="round"/>
    <circle cx="315" cy="701" r="58" fill="#f8fafc"/>
    <circle cx="678" cy="500" r="58" fill="#f8fafc"/>
    <path d="M333 683l80-80" stroke="#111827" stroke-width="24" stroke-linecap="round"/>
    <path d="M660 482l-80 80" stroke="#111827" stroke-width="24" stroke-linecap="round"/>
  </g>
</svg>
